{
  "accessors": [
    {
      "bufferView": 3,
      "componentType": 5126,
      "count": 2050,
      "max": [
        15.750088691711426,
        104.96900177001953,
        13.876079559326172
      ],
      "min": [
        -15.912139892578125,
        102.45960235595703,
        -10.295509338378906
      ],
      "type": "VEC3"
    },
    {
      "bufferView": 3,
      "byteOffset": 24600,
      "componentType": 5126,
      "count": 2050,
      "max": [
        0.99889111518859863,
        0.37606838345527649,
        0.99953967332839966
      ],
      "min": [
        -0.9993928074836731,
        -0.9523741602897644,
        -0.99992692470550537
      ],
      "type": "VEC3"
    },
    {
      "bufferView": 4,
      "componentType": 5126,
      "count": 2050,
      "max": [
        0.9999852180480957,
        0.14432996511459351,
        0.99989491701126099,
        1
      ],
      "min": [
        -0.095312722027301788,
        -0.091487117111682892,
        -0.99943482875823975,
        1
      ],
      "type": "VEC4"
    },
    {
      "bufferView": 2,
      "componentType": 5126,
      "count": 2050,
      "max": [
        0.60642600059509277,
        0.97040700912475586
      ],
      "min": [
        0.20221400260925293,
        0.020824499428272247
      ],
      "type": "VEC2"
    },
    {
      "bufferView": 1,
      "componentType": 5125,
      "count": 11520,
      "max": [
        2049
      ],
      "min": [
        0
      ],
      "type": "SCALAR"
    },
    {
      "bufferView": 3,
      "byteOffset": 49200,
      "componentType": 5126,
      "count": 8376,
      "max": [
        34.592361450195312,
        152.58309936523438,
        13.56233024597168
      ],
      "min": [
        -35.279258728027344,
        103.92949676513672,
        -15.522150039672852
      ],
      "type": "VEC3"
    },
    {
      "bufferView": 3,
      "byteOffset": 149712,
      "componentType": 5126,
      "count": 8376,
      "max": [
        0.99889212846755981,
        0.99979573488235474,
        0.99995619058609009
      ],
      "min": [
        -0.9992678165435791,
        -0.99990099668502808,
        -0.9999731183052063
      ],
      "type": "VEC3"
    },
    {
      "bufferView": 4,
      "byteOffset": 32800,
      "componentType": 5126,
      "count": 8376,
      "max": [
        0.99999892711639404,
        0.83353215456008911,
        0.99952954053878784,
        1
      ],
      "min": [
        -0.94380980730056763,
        -0.90428012609481812,
        -0.99989497661590576,
        1
      ],
      "type": "VEC4"
    },
    {
      "bufferView": 2,
      "byteOffset": 16400,
      "componentType": 5126,
      "count": 8376,
      "max": [
        0.89868390560150146,
        0.95148211717605591
      ],
      "min": [
        0.17499899864196777,
        0.045323498547077179
      ],
      "type": "VEC2"
    },
    {
      "bufferView": 1,
      "byteOffset": 46080,
      "componentType": 5125,
      "count": 47808,
      "max": [
        8375
      ],
      "min": [
        0
      ],
      "type": "SCALAR"
    },
    {
      "bufferView": 3,
      "byteOffset": 250224,
      "componentType": 5126,
      "count": 1722,
      "max": [
        35.980300903320312,
        149.69380187988281,
        2.6825332641601562
      ],
      "min": [
        -36.728652954101562,
        138.37210083007812,
        -9.6592817306518555
      ],
      "type": "VEC3"
    },
    {
      "bufferView": 3,
      "byteOffset": 270888,
      "componentType": 5126,
      "count": 1722,
      "max": [
        0.99999481439590454,
        0.99906373023986816,
        0.99808955192565918
      ],
      "min": [
        -0.99829721450805664,
        -0.99902951717376709,
        -0.99963235855102539
      ],
      "type": "VEC3"
    },
    {
      "bufferView": 4,
      "byteOffset": 166816,
      "componentType": 5126,
      "count": 1722,
      "max": [
        0.99999237060546875,
        0.99779021739959717,
        0.99785315990447998,
        1
      ],
      "min": [
        -0.9999958872795105,
        -0.99890029430389404,
        -0.99588871002197266,
        1
      ],
      "type": "VEC4"
    },
    {
      "bufferView": 2,
      "byteOffset": 83408,
      "componentType": 5126,
      "count": 1722,
      "max": [
        0.88029801845550537,
        0.86728799343109131
      ],
      "min": [
        0.68786609172821045,
        0.067774496972560883
      ],
      "type": "VEC2"
    },
    {
      "bufferView": 1,
      "byteOffset": 237312,
      "componentType": 5125,
      "count": 9600,
      "max": [
        1721
      ],
      "min": [
        0
      ],
      "type": "SCALAR"
    },
    {
      "bufferView": 3,
      "byteOffset": 291552,
      "componentType": 5126,
      "count": 1722,
      "max": [
        10.668580055236816,
        153.58869934082031,
        4.1017060279846191
      ],
      "min": [
        -10.075130462646484,
        147.26469421386719,
        -11.37782096862793
      ],
      "type": "VEC3"
    },
    {
      "bufferView": 3,
      "byteOffset": 312216,
      "componentType": 5126,
      "count": 1722,
      "max": [
        0.97895514965057373,
        0.97778087854385376,
        0.99739903211593628
      ],
      "min": [
        -0.99039417505264282,
        -0.9998096227645874,
        -0.99551182985305786
      ],
      "type": "VEC3"
    },
    {
      "bufferView": 4,
      "byteOffset": 194368,
      "componentType": 5126,
      "count": 1722,
      "max": [
        0.99994468688964844,
        0.96126562356948853,
        0.9943612813949585,
        1
      ],
      "min": [
        -0.94963455200195312,
        -0.94278305768966675,
        -0.99741512537002563,
        1
      ],
      "type": "VEC4"
    },
    {
      "bufferView": 2,
      "byteOffset": 97184,
      "componentType": 5126,
      "count": 1722,
      "max": [
        0.5145530104637146,
        0.55187201499938965
      ],
      "min": [
        0.29304799437522888,
        0.39594501256942749
      ],
      "type": "VEC2"
    },
    {
      "bufferView": 1,
      "byteOffset": 275712,
      "componentType": 5125,
      "count": 9600,
      "max": [
        1721
      ],
      "min": [
        0
      ],
      "type": "SCALAR"
    },
    {
      "bufferView": 5,
      "componentType": 5126,
      "count": 20,
      "max": [
        1,
        0,
        0,
        0,
        0,
        1,
        0,
        0,
        0,
        0,
        1,
        0,
        43.678298950195312,
        0,
        4.669370174407959,
        1
      ],
      "min": [
        1,
        0,
        0,
        0,
        0,
        1,
        0,
        0,
        0,
        0,
        1,
        0,
        -43.678298950195312,
        -161.84300231933594,
        -1.8165899515151978,
        1
      ],
      "type": "MAT4"
    },
    {
      "bufferView": 0,
      "componentType": 5123,
      "count": 2050,
      "max": [
        7,
        7,
        8,
        8
      ],
      "min": [
        3,
        3,
        4,
        4
      ],
      "type": "VEC4"
    },
    {
      "bufferView": 4,
      "byteOffset": 221920,
      "componentType": 5126,
      "count": 2050,
      "max": [
        0.77162379026412964,
        0.49919837713241577,
        0.10646411031484604,
        0.02476879395544529
      ],
      "min": [
        0.47324693202972412,
        0.22837620973587036,
        0,
        0
      ],
      "type": "VEC4"
    },
    {
      "bufferView": 0,
      "byteOffset": 16400,
      "componentType": 5123,
      "count": 8376,
      "max": [
        19,
        19,
        19,
        19
      ],
      "min": [
        3,
        3,
        3,
        3
      ],
      "type": "VEC4"
    },
    {
      "bufferView": 4,
      "byteOffset": 254720,
      "componentType": 5126,
      "count": 8376,
      "max": [
        1,
        0.49997705221176147,
        0.29904630780220032,
        0.16096740961074829
      ],
      "min": [
        0.35155963897705078,
        0,
        0,
        0
      ],
      "type": "VEC4"
    },
    {
      "bufferView": 0,
      "byteOffset": 83408,
      "componentType": 5123,
      "count": 1722,
      "max": [
        16,
        17,
        13,
        13
      ],
      "min": [
        13,
        13,
        13,
        13
      ],
      "type": "VEC4"
    },
    {
      "bufferView": 4,
      "byteOffset": 388736,
      "componentType": 5126,
      "count": 1722,
      "max": [
        1,
        0.015182727016508579,
        0,
        0
      ],
      "min": [
        0.9848172664642334,
        0,
        0,
        0
      ],
      "type": "VEC4"
    },
    {
      "bufferView": 0,
      "byteOffset": 97184,
      "componentType": 5123,
      "count": 1722,
      "max": [
        15,
        15,
        15,
        16
      ],
      "min": [
        9,
        9,
        9,
        9
      ],
      "type": "VEC4"
    },
    {
      "bufferView": 4,
      "byteOffset": 416288,
      "componentType": 5126,
      "count": 1722,
      "max": [
        1,
        0.49986952543258667,
        0.24671272933483124,
        0.023364771157503128
      ],
      "min": [
        0.38630589842796326,
        0,
        0,
        0
      ],
      "type": "VEC4"
    }
  ],
  "asset": {
    "extras": {
      "author": "Tha_Colossal_Kid (https://sketchfab.com/Tha_Colossal_Kid)",
      "license": "CC-BY-4.0 (http://creativecommons.org/licenses/by/4.0/)",
      "source": "https://sketchfab.com/3d-models/t-shirt-355043f9aa2647d7b6963ba64ae949e5",
      "title": "T- Shirt"
    },
    "generator": "Sketchfab-5.22.0",
    "version": "2.0"
  },
  "bufferViews": [
    {
      "buffer": 0,
      "byteLength": 110960,
      "byteOffset": 0,
      "byteStride": 8,
      "name": "shortBufferViews",
      "target": 34962
    },
    {
      "buffer": 0,
      "byteLength": 314112,
      "byteOffset": 110960,
      "name": "floatBufferViews",
      "target": 34963
    },
    {
      "buffer": 0,
      "byteLength": 110960,
      "byteOffset": 425072,
      "byteStride": 8,
      "name": "floatBufferViews",
      "target": 34962
    },
    {
      "buffer": 0,
      "byteLength": 332880,
      "byteOffset": 536032,
      "byteStride": 12,
      "name": "floatBufferViews",
      "target": 34962
    },
    {
      "buffer": 0,
      "byteLength": 443840,
      "byteOffset": 868912,
      "byteStride": 16,
      "name": "floatBufferViews",
      "target": 34962
    },
    {
      "buffer": 0,
      "byteLength": 1280,
      "byteOffset": 1312752,
      "byteStride": 64,
      "name": "floatBufferViews"
    }
  ],
  "buffers": [
    {
      "byteLength": 1314032,
      "uri": "scene.bin"
    }
  ],
  "images": [
    {
      "uri": "textures/TrimWaist_baseColor.jpeg"
    },
    {
      "uri": "textures/Fabric_baseColor.jpeg"
    },
    {
      "uri": "textures/TrimNeck_baseColor.jpeg"
    },
    {
      "uri": "textures/TrimSleeves_baseColor.jpeg"
    }
  ],
  "materials": [
    {
      "doubleSided": true,
      "emissiveFactor": [
        0,
        0,
        0
      ],
      "name": "TrimWaist",
      "pbrMetallicRoughness": {
        "baseColorFactor": [
          1,
          1,
          1,
          1
        ],
        "baseColorTexture": {
          "index": 0,
          "texCoord": 0
        },
        "metallicFactor": 0,
        "roughnessFactor": 0.92374000519999999
      }
    },
    {
      "doubleSided": true,
      "emissiveFactor": [
        0,
        0,
        0
      ],
      "name": "Fabric",
      "pbrMetallicRoughness": {
        "baseColorFactor": [
          1,
          1,
          1,
          1
        ],
        "baseColorTexture": {
          "index": 1,
          "texCoord": 0
        },
        "metallicFactor": 0,
        "roughnessFactor": 0.92374000519999999
      }
    },
    {
      "doubleSided": true,
      "emissiveFactor": [
        0,
        0,
        0
      ],
      "name": "TrimSleeves",
      "pbrMetallicRoughness": {
        "baseColorFactor": [
          1,
          1,
          1,
          1
        ],
        "baseColorTexture": {
          "index": 3,
          "texCoord": 0
        },
        "metallicFactor": 0,
        "roughnessFactor": 0.92374000519999999
      }
    },
    {
      "doubleSided": true,
      "emissiveFactor": [
        0,
        0,
        0
      ],
      "name": "TrimNeck",
      "pbrMetallicRoughness": {
        "baseColorFactor": [
          1,
          1,
          1,
          1
        ],
        "baseColorTexture": {
          "index": 2,
          "texCoord": 0
        },
        "metallicFactor": 0,
        "roughnessFactor": 0.92374000519999999
      }
    }
  ],
  "meshes": [
    {
      "name": "TShirt for Genesis.Shape_TrimWaist_0",
      "primitives": [
        {
          "attributes": {
            "JOINTS_0": 21,
            "NORMAL": 1,
            "POSITION": 0,
            "TANGENT": 2,
            "TEXCOORD_0": 3,
            "WEIGHTS_0": 22
          },
          "indices": 4,
          "material": 0,
          "mode": 4
        }
      ]
    },
    {
      "name": "TShirt for Genesis.Shape_Fabric_0",
      "primitives": [
        {
          "attributes": {
            "JOINTS_0": 23,
            "NORMAL": 6,
            "POSITION": 5,
            "TANGENT": 7,
            "TEXCOORD_0": 8,
            "WEIGHTS_0": 24
          },
          "indices": 9,
          "material": 1,
          "mode": 4
        }
      ]
    },
    {
      "name": "TShirt for Genesis.Shape_TrimSleeves_0",
      "primitives": [
        {
          "attributes": {
            "JOINTS_0": 25,
            "NORMAL": 11,
            "POSITION": 10,
            "TANGENT": 12,
            "TEXCOORD_0": 13,
            "WEIGHTS_0": 26
          },
          "indices": 14,
          "material": 2,
          "mode": 4
        }
      ]
    },
    {
      "name": "TShirt for Genesis.Shape_TrimNeck_0",
      "primitives": [
        {
          "attributes": {
            "JOINTS_0": 27,
            "NORMAL": 16,
            "POSITION": 15,
            "TANGENT": 17,
            "TEXCOORD_0": 18,
            "WEIGHTS_0": 28
          },
          "indices": 19,
          "material": 3,
          "mode": 4
        }
      ]
    }
  ],
  "nodes": [
    {
      "children": [
        1
      ],
      "name": "RootNode (gltf orientation matrix)",
      "rotation": [
        -0.70710678118654746,
        -0,
        -0,
        0.70710678118654757
      ]
    },
    {
      "children": [
        2
      ],
      "name": "RootNode (model correction matrix)"
    },
    {
      "children": [
        3
      ],
      "matrix": [
        1,
        0,
        0,
        0,
        0,
        0,
        1,
        0,
        0,
        -1,
        0,
        0,
        0,
        0,
        0,
        1
      ],
      "name": "2310adaf2db24ed2bd336d3c389e1f68.fbx"
    },
    {
      "children": [
        4
      ],
      "name": "RootNode"
    },
    {
      "children": [
        5,
        6,
        7,
        8,
        9
      ],
      "name": ""
    },
    {
      "children": [
        10
      ],
      "name": "_rootJoint"
    },
    {
      "mesh": 0,
      "name": "",
      "skin": 0
    },
    {
      "mesh": 1,
      "name": "",
      "skin": 0
    },
    {
      "mesh": 2,
      "name": "",
      "skin": 0
    },
    {
      "mesh": 3,
      "name": "",
      "skin": 0
    },
    {
      "children": [
        11,
        29
      ],
      "name": "TShirt for Genesis_00"
    },
    {
      "children": [
        12,
        16
      ],
      "name": "hip_01",
      "translation": [
        0,
        103.87599945068359,
        0
      ]
    },
    {
      "children": [
        13,
        14
      ],
      "name": "pelvis_02",
      "translation": [
        0,
        1.96099853515625,
        1.8165899515151978
      ]
    },
    {
      "name": "lThigh_03",
      "rotation": [
        4.3368086899420177e-19,
        -6.9388939039072284e-18,
        -5.4210108624275222e-20,
        1
      ],
      "translation": [
        8.3669795989990234,
        -10.167594909667969,
        -1.218358039855957
      ]
    },
    {
      "children": [
        15
      ],
      "name": "rThigh_04",
      "rotation": [
        4.3368086899420177e-19,
        6.9388939039072284e-18,
        5.4210108624275222e-20,
        1
      ],
      "translation": [
        -8.3669795989990234,
        -10.167594909667969,
        -1.218358039855957
      ]
    },
    {
      "name": "rShin_05",
      "rotation": [
        -3.4694469519536142e-18,
        0,
        -6.018531076210112e-36,
        1
      ],
      "translation": [
        -2.1924200057983398,
        -43.463001251220703,
        -0.49282598495483398
      ]
    },
    {
      "children": [
        17
      ],
      "name": "abdomen_06",
      "translation": [
        0,
        -1.1859970092773438,
        -1.5017800331115723
      ]
    },
    {
      "children": [
        18
      ],
      "name": "abdomen2_07",
      "translation": [
        0,
        9.9639968872070312,
        0.21337997913360596
      ]
    },
    {
      "children": [
        19,
        21,
        24,
        27,
        28
      ],
      "name": "chest_08",
      "translation": [
        0,
        13.134002685546875,
        -3.2572898864746094
      ]
    },
    {
      "children": [
        20
      ],
      "name": "neck_09",
      "translation": [
        0,
        26.038002014160156,
        -0.12368011474609375
      ]
    },
    {
      "name": "head_010",
      "translation": [
        0,
        10.016998291015625,
        2.3871700763702393
      ]
    },
    {
      "children": [
        22
      ],
      "name": "rCollar_011",
      "rotation": [
        1.3877787807814457e-17,
        1.9259299443872359e-34,
        1.3877787807814457e-17,
        1
      ],
      "translation": [
        -1.7068799734115601,
        20.075004577636719,
        5.005591869354248
      ]
    },
    {
      "children": [
        23
      ],
      "name": "rShldr_012",
      "rotation": [
        0,
        -0,
        -9.2157184661267877e-19,
        1
      ],
      "translation": [
        -13.645820617675781,
        -0.0470123291015625,
        -4.8490219116210938
      ]
    },
    {
      "name": "rForeArm_013",
      "rotation": [
        -5.4210108624275222e-20,
        2.7755575615628914e-17,
        2.439454888092385e-19,
        1
      ],
      "translation": [
        -28.325599670410156,
        -0.9749908447265625,
        2.2878901958465576
      ]
    },
    {
      "children": [
        25
      ],
      "name": "lCollar_014",
      "rotation": [
        1.3877787807814457e-17,
        -1.9259299443872359e-34,
        -1.3877787807814457e-17,
        1
      ],
      "translation": [
        1.7068799734115601,
        20.075004577636719,
        5.005591869354248
      ]
    },
    {
      "children": [
        26
      ],
      "name": "lShldr_015",
      "rotation": [
        0,
        0,
        9.2157184661267877e-19,
        1
      ],
      "translation": [
        13.645820617675781,
        -0.0470123291015625,
        -4.8490219116210938
      ]
    },
    {
      "name": "lForeArm_016",
      "rotation": [
        -5.4210108624275222e-20,
        -2.7755575615628914e-17,
        -2.439454888092385e-19,
        1
      ],
      "translation": [
        28.325599670410156,
        -0.9749908447265625,
        2.2878901958465576
      ]
    },
    {
      "name": "rPectoral_017",
      "rotation": [
        -1.0842021724855044e-19,
        1.3877787807814457e-17,
        -2.7105054312137611e-20,
        1
      ],
      "translation": [
        -7.7470898628234863,
        8.8259963989257812,
        2.7931699752807617
      ]
    },
    {
      "name": "lPectoral_018",
      "rotation": [
        -1.0842021724855044e-19,
        -1.3877787807814457e-17,
        2.7105054312137611e-20,
        1
      ],
      "translation": [
        7.7470898628234863,
        8.8259963989257812,
        2.7931699752807617
      ]
    },
    {
      "name": "TShirt for Genesis.Shape"
    }
  ],
  "samplers": [
    {
      "magFilter": 9729,
      "minFilter": 9987,
      "wrapS": 10497,
      "wrapT": 10497
    }
  ],
  "scene": 0,
  "scenes": [
    {
      "name": "OSG_Scene",
      "nodes": [
        0
      ]
    }
  ],
  "skins": [
    {
      "inverseBindMatrices": 20,
      "joints": [
        5,
        10,
        11,
        12,
        13,
        14,
        15,
        16,
        17,
        18,
        19,
        20,
        21,
        22,
        23,
        24,
        25,
        26,
        27,
        28
      ],
      "skeleton": 5
    }
  ],
  "textures": [
    {
      "sampler": 0,
      "source": 0
    },
    {
      "sampler": 0,
      "source": 1
    },
    {
      "sampler": 0,
      "source": 2
    },
    {
      "sampler": 0,
      "source": 3
    }
  ]
}

